<svg xmlns="http://www.w3.org/2000/svg" viewBox="0 0 64 64" fill="none">
  <defs>
    <linearGradient id="bg" x1="10" y1="8" x2="54" y2="56" gradientUnits="userSpaceOnUse">
      <stop stop-color="#0F172A" />
      <stop offset="1" stop-color="#1D4ED8" />
    </linearGradient>
    <linearGradient id="tower" x1="24" y1="20" x2="40" y2="52" gradientUnits="userSpaceOnUse">
      <stop stop-color="#E0F2FE" />
      <stop offset="1" stop-color="#93C5FD" />
    </linearGradient>
  </defs>

  <rect x="4" y="4" width="56" height="56" rx="16" fill="url(#bg)" />
  <path
    d="M32 14C24.268 14 18 20.268 18 28V29.5C18 30.328 18.672 31 19.5 31C20.328 31 21 30.328 21 29.5V28C21 21.925 25.925 17 32 17C38.075 17 43 21.925 43 28V29.5C43 30.328 43.672 31 44.5 31C45.328 31 46 30.328 46 29.5V28C46 20.268 39.732 14 32 14Z"
    fill="#38BDF8"
  />
  <path
    d="M32 21C27.029 21 23 25.029 23 30V31.5C23 32.328 23.672 33 24.5 33C25.328 33 26 32.328 26 31.5V30C26 26.686 28.686 24 32 24C35.314 24 38 26.686 38 30V31.5C38 32.328 38.672 33 39.5 33C40.328 33 41 32.328 41 31.5V30C41 25.029 36.971 21 32 21Z"
    fill="#7DD3FC"
  />
  <circle cx="32" cy="33" r="3" fill="#F8FAFC" />
  <path
    d="M32 36L22.5 50H27.5L30 45.5H34L36.5 50H41.5L32 36Z"
    fill="url(#tower)"
  />
  <rect x="30.5" y="33" width="3" height="15" rx="1.5" fill="#E0F2FE" />
  <path d="M20 50H44" stroke="#BFDBFE" stroke-width="3" stroke-linecap="round" />
  <path
    d="M14 18.5L18 22.5M50 18.5L46 22.5"
    stroke="#60A5FA"
    stroke-width="2.5"
    stroke-linecap="round"
  />
</svg>
